# Blender v2.90.1 OBJ File: 'simple_scene.blend'
# www.blender.org
mtllib simple_scene.mtl
o Cube
v -377.184204 -22.771994 384.639679
v -377.184448 -22.771994 -373.765106
v 384.208984 -22.771994 384.639435
v 384.208740 -22.771994 -373.765350
vt 0.000100 0.000100
vt 0.999900 0.000100
vt 0.999900 0.999900
vt 0.000100 0.999900
vn 0.0000 1.0000 0.0000
usemtl Ground
s off
f 1/1/1 3/2/1 4/3/1 2/4/1
o Cube.007
v -377.184204 -22.771994 384.639679
v -377.184448 -22.771994 -373.765106
v 384.208984 -22.771994 384.639435
v 384.208740 -22.771994 -373.765350
vt 0.000100 0.000100
vt 0.999900 0.000100
vt 0.999900 0.999900
vt 0.000100 0.999900
vn 0.0000 1.0000 0.0000
usemtl Ground.007
s off
f 5/5/2 7/6/2 8/7/2 6/8/2
