# Blender v2.90.1 OBJ File: 'simple_scene_blender.blend'
# www.blender.org
mtllib simple_scene_2.mtl
o Cube
v -3.073645 -0.471424 5.585356
v -3.073647 -0.471424 -0.339681
v 2.874740 -0.471424 5.585354
v 2.874738 -0.471424 -0.339683
vt 0.000100 0.000100
vt 0.999900 0.000100
vt 0.999900 0.999900
vt 0.000100 0.999900
vn 0.0000 1.0000 0.0000
usemtl Ground
s off
f 1/1/1 3/2/1 4/3/1 2/4/1
o Cube.002
v -1.819258 -1.549072 -0.046645
v -1.819257 -1.549072 5.267046
v -1.819258 1.107774 -0.046645
v -1.819257 1.107774 5.267046
vt 0.125000 0.500000
vt 0.375000 0.500000
vt 0.375000 0.750000
vt 0.125000 0.750000
vn -1.0000 -0.0000 0.0000
usemtl Wall
s off
f 7/5/2 5/6/2 6/7/2 8/8/2
o Cube.003_Cube.011
v -0.313818 -0.410954 2.950831
v -0.322476 0.021271 2.940706
v -0.663170 -0.423914 2.696309
v -0.671827 0.008311 2.686183
v -0.059113 -0.414038 2.601387
v -0.067771 0.018187 2.591261
v -0.408464 -0.426998 2.346864
v -0.417122 0.005227 2.336739
vt 0.375000 0.000000
vt 0.625000 0.000000
vt 0.625000 0.250000
vt 0.375000 0.250000
vt 0.625000 0.500000
vt 0.375000 0.500000
vt 0.625000 0.750000
vt 0.375000 0.750000
vt 0.625000 1.000000
vt 0.375000 1.000000
vt 0.125000 0.500000
vt 0.125000 0.750000
vt 0.875000 0.500000
vt 0.875000 0.750000
vn -0.5890 0.0071 0.8081
vn -0.8079 -0.0300 -0.5886
vn 0.5890 -0.0071 -0.8081
vn 0.8079 0.0300 0.5886
vn 0.0200 -0.9995 0.0234
vn -0.0200 0.9995 -0.0234
usemtl Blue
s off
f 9/9/3 10/10/3 12/11/3 11/12/3
f 11/12/4 12/11/4 16/13/4 15/14/4
f 15/14/5 16/13/5 14/15/5 13/16/5
f 13/16/6 14/15/6 10/17/6 9/18/6
f 11/19/7 15/14/7 13/16/7 9/20/7
f 16/13/8 12/21/8 10/22/8 14/15/8
o Cube.001_Cube.013
v -0.677524 -0.133059 3.686067
v -0.910097 0.192466 3.521934
v -0.859707 -0.405472 3.403939
v -1.092279 -0.079947 3.239805
v -0.361747 -0.050472 3.402413
v -0.594319 0.275053 3.238280
v -0.543929 -0.322885 3.120284
v -0.776501 0.002640 2.956151
vt 0.375000 0.000000
vt 0.625000 0.000000
vt 0.625000 0.250000
vt 0.375000 0.250000
vt 0.625000 0.500000
vt 0.375000 0.500000
vt 0.625000 0.750000
vt 0.375000 0.750000
vt 0.625000 1.000000
vt 0.375000 1.000000
vt 0.125000 0.500000
vt 0.125000 0.750000
vt 0.875000 0.500000
vt 0.875000 0.750000
vn -0.7302 -0.1910 0.6560
vn -0.4213 -0.6300 -0.6524
vn 0.7302 0.1910 -0.6560
vn 0.4213 0.6300 0.6524
vn 0.5378 -0.7528 0.3796
vn -0.5378 0.7528 -0.3796
usemtl Red
s off
f 17/23/9 18/24/9 20/25/9 19/26/9
f 19/26/10 20/25/10 24/27/10 23/28/10
f 23/28/11 24/27/11 22/29/11 21/30/11
f 21/30/12 22/29/12 18/31/12 17/32/12
f 19/33/13 23/28/13 21/30/13 17/34/13
f 24/27/14 20/35/14 18/36/14 22/29/14
o Cube.004_Cube.014
v 0.225185 0.005669 3.336420
v 0.427909 0.261068 3.052395
v -0.053333 -0.115540 3.028634
v 0.149391 0.139859 2.744609
v 0.486579 -0.321555 3.228746
v 0.689303 -0.066156 2.944721
v 0.208061 -0.442764 2.920961
v 0.410785 -0.187365 2.636936
vt 0.375000 0.000000
vt 0.625000 0.000000
vt 0.625000 0.250000
vt 0.375000 0.250000
vt 0.625000 0.500000
vt 0.375000 0.500000
vt 0.625000 0.750000
vt 0.375000 0.750000
vt 0.625000 1.000000
vt 0.375000 1.000000
vt 0.125000 0.500000
vt 0.125000 0.750000
vt 0.875000 0.500000
vt 0.875000 0.750000
vn -0.6045 0.7567 0.2490
vn -0.6441 -0.2803 -0.7118
vn 0.6045 -0.7567 -0.2490
vn 0.6441 0.2803 0.7118
vn -0.4688 -0.5906 0.6568
vn 0.4688 0.5906 -0.6568
usemtl Green
s off
f 25/37/15 26/38/15 28/39/15 27/40/15
f 27/40/16 28/39/16 32/41/16 31/42/16
f 31/42/17 32/41/17 30/43/17 29/44/17
f 29/44/18 30/43/18 26/45/18 25/46/18
f 27/47/19 31/42/19 29/44/19 25/48/19
f 32/41/20 28/49/20 26/50/20 30/43/20
o Cube.005_Cube.001
v 1.233232 -1.549072 -0.046645
v 1.233233 -1.549072 5.267046
v 1.233232 1.107774 -0.046645
v 1.233233 1.107774 5.267046
vt 0.125000 0.500000
vt 0.375000 0.500000
vt 0.375000 0.750000
vt 0.125000 0.750000
vn -1.0000 -0.0000 0.0000
usemtl Wall
s off
f 35/51/21 33/52/21 34/53/21 36/54/21
o Cube.006_Cube.003
v -2.829714 -1.549072 3.905331
v 2.483977 -1.549072 3.905329
v -2.829714 1.107774 3.905331
v 2.483977 1.107774 3.905329
vt 0.125000 0.500000
vt 0.375000 0.500000
vt 0.375000 0.750000
vt 0.125000 0.750000
vn 0.0000 0.0000 1.0000
usemtl Wall
s off
f 39/55/22 37/56/22 38/57/22 40/58/22
