# Blender v2.90.1 OBJ File: 'simple_scene.blend'
# www.blender.org
mtllib simple_scene_2.mtl
o Cube
v -377.184204 -22.771994 384.639679
v -377.184448 -22.771994 -373.765106
v 384.208984 -22.771994 384.639435
v 384.208740 -22.771994 -373.765350
vt 0.000100 0.000100
vt 0.999900 0.000100
vt 0.999900 0.999900
vt 0.000100 0.999900
vn 0.0000 1.0000 0.0000
usemtl Ground
s off
f 1/1/1 3/2/1 4/3/1 2/4/1
o Cube.001
v -107.466568 356.966553 -373.765228
v -107.466568 356.966553 384.639557
v -107.466805 -404.426636 -373.765228
v -107.466805 -404.426636 384.639557
vt 0.000100 0.000100
vt 0.000100 0.999900
vt 0.999900 0.999900
vt 0.999900 0.000100
vn 1.0000 -0.0000 0.0000
usemtl Ground.001
s off
f 5/5/2 6/6/2 8/7/2 7/8/2
o Cube.002
v 97.591156 356.966553 384.639557
v 97.591217 356.966553 -373.765228
v 97.590912 -404.426636 384.639557
v 97.590981 -404.426636 -373.765228
vt 0.000100 0.000100
vt 0.000100 0.999900
vt 0.999900 0.999900
vt 0.999900 0.000100
vn -1.0000 0.0000 -0.0000
usemtl Ground.002
s off
f 9/9/3 10/10/3 12/11/3 11/12/3
o Cube.003
v 369.785126 356.966431 -375.508820
v -388.619659 356.966675 -375.508850
v 369.784882 -404.426758 -375.508820
v -388.619904 -404.426514 -375.508850
vt 0.000100 0.000100
vt 0.000100 0.999900
vt 0.999900 0.999900
vt 0.999900 0.000100
vn -0.0000 0.0000 1.0000
usemtl Ground.003
s off
f 13/13/4 14/14/4 16/15/4 15/16/4
o Cube.007
v -377.184204 -22.771994 384.639679
v -377.184448 -22.771994 -373.765106
v 384.208984 -22.771994 384.639435
v 384.208740 -22.771994 -373.765350
vt 0.000100 0.000100
vt 0.999900 0.000100
vt 0.999900 0.999900
vt 0.000100 0.999900
vn 0.0000 1.0000 0.0000
usemtl Ground.007
s off
f 17/17/5 19/18/5 20/19/5 18/20/5
o Cube.004
v 369.785126 356.966431 386.418549
v -388.619659 356.966675 386.418518
v 369.784882 -404.426758 386.418549
v -388.619904 -404.426514 386.418518
vt 0.000100 0.000100
vt 0.000100 0.999900
vt 0.999900 0.999900
vt 0.999900 0.000100
vn 0.0000 0.0000 1.0000
usemtl Ground.004
s off
f 21/21/6 22/22/6 24/23/6 23/24/6
o Cube.005_Cube.009
v -377.184204 218.932571 384.639679
v -377.184448 218.932571 -373.765106
v 384.208984 218.932571 384.639435
v 384.208740 218.932571 -373.765350
vt 0.000100 0.000100
vt 0.000100 0.999900
vt 0.999900 0.999900
vt 0.999900 0.000100
vn 0.0000 -1.0000 -0.0000
usemtl Ground.009
s off
f 25/25/7 26/26/7 28/27/7 27/28/7
